<?xml version="1.0" encoding="UTF-8"?>
<svg xmlns="http://www.w3.org/2000/svg" xmlns:xlink="http://www.w3.org/1999/xlink" width="190px" height="52px" viewBox="0 0 191 52" version="1.1">
<g id="surface1">
<path style=" stroke:none;fill-rule:nonzero;fill:rgb(0%,0%,0%);fill-opacity:1;" d="M 94.589844 24.597656 C 94.589844 36.003906 94.640625 41.875 94.765625 41.875 C 95.007812 41.875 95.007812 7.605469 94.765625 7.445312 C 94.640625 7.375 94.589844 13.140625 94.589844 24.597656 Z M 94.589844 24.597656 "/>
<path style=" stroke:none;fill-rule:nonzero;fill:rgb(0%,0%,0%);fill-opacity:1;" d="M 113.246094 12.5625 C 110.898438 15.875 110.265625 18.011719 111.089844 19.832031 C 111.683594 21.09375 112.191406 21.671875 114.367188 23.425781 C 117.0625 25.613281 117.867188 26.4375 118.339844 27.417969 C 118.832031 28.453125 118.867188 29.136719 118.480469 30.46875 C 117.78125 32.972656 114.996094 34.988281 112.125 35.058594 C 111.351562 35.09375 111.335938 35.09375 111.929688 35.199219 C 112.859375 35.375 114.503906 35.058594 115.75 34.515625 C 119.183594 32.957031 121.25 28.609375 120.445312 24.703125 C 119.988281 22.496094 119.304688 21.410156 116.765625 18.835938 C 114.101562 16.136719 113.59375 15.277344 113.71875 13.683594 C 113.753906 13.140625 113.945312 12.351562 114.15625 11.949219 C 114.714844 10.792969 114.3125 11.074219 113.246094 12.5625 Z M 113.246094 12.5625 "/>
<path style=" stroke:none;fill-rule:nonzero;fill:rgb(0%,0%,0%);fill-opacity:1;" d="M 139.046875 15.417969 C 138.273438 15.839844 137.960938 16.277344 137.015625 18.152344 L 136.296875 19.570312 L 137.855469 19.484375 C 138.714844 19.449219 140.273438 19.5 141.304688 19.605469 C 143.441406 19.851562 147.367188 20.761719 146.964844 20.917969 C 146.105469 21.269531 140.34375 23.023438 139.167969 23.300781 C 137.800781 23.617188 134.597656 24.179688 134.105469 24.179688 C 133.949219 24.179688 133.84375 23.808594 133.757812 22.953125 C 133.230469 17.589844 130.078125 14.175781 126.890625 15.503906 C 124.839844 16.363281 122.457031 20.796875 122.441406 23.773438 C 122.441406 24.265625 122.511719 24.878906 122.617188 25.125 C 122.914062 25.929688 124 26.929688 125.101562 27.4375 C 126.082031 27.875 126.453125 27.945312 128.359375 27.996094 C 129.535156 28.03125 130.496094 28.101562 130.496094 28.15625 C 130.496094 28.453125 128.0625 30.90625 126.765625 31.90625 C 122.160156 35.476562 116.484375 37.546875 112.054688 37.265625 C 107.410156 36.984375 105.398438 34.253906 107.097656 30.554688 C 107.8125 28.996094 107.078125 29.800781 106.183594 31.570312 C 105.222656 33.445312 104.957031 34.8125 105.238281 36.460938 C 105.730469 39.296875 107.535156 41.085938 110.511719 41.714844 C 111.878906 41.996094 115.03125 41.820312 116.746094 41.363281 C 120.988281 40.242188 125.191406 37.703125 128.695312 34.148438 C 130.691406 32.113281 131.53125 30.992188 132.460938 29.136719 L 133.160156 27.71875 L 134.859375 27.417969 C 137.257812 27 140.867188 26.085938 145.035156 24.84375 C 147.015625 24.265625 149.714844 23.496094 151.027344 23.144531 L 153.425781 22.511719 L 154.40625 20.9375 C 154.949219 20.0625 155.546875 19.203125 155.738281 18.992188 C 156.246094 18.449219 156.160156 18.222656 155.390625 18.222656 C 152.917969 18.222656 148.890625 17.363281 144.773438 15.945312 C 142.128906 15.03125 140.097656 14.839844 139.046875 15.417969 Z M 128.765625 19.9375 C 130.09375 20.796875 131.007812 22.144531 131.304688 23.757812 L 131.425781 24.40625 L 130.128906 24.28125 C 126.820312 23.984375 124.71875 22.898438 124.71875 21.480469 C 124.71875 19.746094 127.046875 18.851562 128.765625 19.9375 Z M 128.765625 19.9375 "/>
<path style=" stroke:none;fill-rule:nonzero;fill:rgb(0%,0%,0%);fill-opacity:1;" d="M 174.375 17.308594 C 173.449219 17.746094 172.117188 19.238281 171.046875 21.042969 C 169.945312 22.917969 168.945312 23.984375 167.652344 24.6875 C 166.230469 25.4375 166.054688 25.40625 166.054688 24.421875 C 166.054688 23.214844 165.546875 21.21875 164.953125 20.09375 C 163.902344 18.097656 162.117188 17.066406 160.433594 17.519531 C 158.910156 17.941406 156.789062 20.742188 155.898438 23.53125 C 155.390625 25.070312 155.441406 27.050781 156.003906 27.804688 C 156.949219 29.066406 158.648438 29.679688 161.273438 29.695312 C 162.238281 29.695312 163.007812 29.75 162.972656 29.820312 C 162.796875 30.101562 160.644531 31.203125 159.121094 31.78125 C 155.703125 33.09375 151.042969 34.09375 144.160156 34.953125 C 135.421875 36.054688 131.53125 37.019531 127.011719 39.175781 C 123.261719 40.960938 120.164062 43.449219 118.410156 46.078125 C 117.660156 47.183594 117.761719 47.21875 118.847656 46.234375 C 119.726562 45.449219 122.316406 43.886719 124.050781 43.136719 C 124.945312 42.730469 126.660156 42.136719 127.851562 41.785156 C 131.480469 40.753906 133.824219 40.367188 144.421875 39.15625 C 151.640625 38.316406 155.25 37.476562 158.4375 35.882812 C 161.0625 34.550781 163.726562 32.203125 164.867188 30.203125 C 165.355469 29.3125 165.53125 29.171875 166.703125 28.644531 C 167.546875 28.261719 168.351562 27.699219 169.015625 27.070312 L 170.050781 26.085938 L 170.367188 26.71875 C 171.347656 28.785156 175.480469 30.257812 177.652344 29.292969 C 178.757812 28.804688 179.738281 27.769531 180.4375 26.351562 C 181 25.230469 181.03125 25.035156 181.015625 23.476562 C 181.015625 21.53125 180.648438 20.410156 179.578125 19.007812 C 178.230469 17.238281 176.058594 16.523438 174.375 17.308594 Z M 176.96875 21.96875 C 177.496094 22.214844 178.265625 22.757812 178.652344 23.144531 C 179.246094 23.738281 179.367188 23.984375 179.367188 24.546875 C 179.367188 25.351562 179.054688 25.578125 177.914062 25.578125 C 175.707031 25.578125 172.363281 23.722656 172.363281 22.476562 C 172.363281 22.269531 172.574219 21.933594 172.851562 21.726562 C 173.535156 21.164062 175.601562 21.285156 176.96875 21.96875 Z M 160.996094 21.933594 C 161.378906 22.039062 161.992188 22.390625 162.359375 22.722656 C 163.078125 23.320312 164.234375 25.371094 164.007812 25.597656 C 163.78125 25.789062 160.082031 25.4375 159.226562 25.140625 C 158.277344 24.808594 157.648438 24.246094 157.648438 23.738281 C 157.648438 23.125 158.382812 22.179688 159.050781 21.953125 C 159.839844 21.691406 160.171875 21.671875 160.996094 21.933594 Z M 160.996094 21.933594 "/>
<path style=" stroke:none;fill-rule:nonzero;fill:rgb(0%,0%,0%);fill-opacity:1;" d="M 55.984375 20.742188 C 54.984375 21.113281 54.457031 21.550781 53.878906 22.496094 C 53.441406 23.195312 53.355469 23.511719 53.355469 24.492188 C 53.355469 26.226562 54.019531 27.332031 55.527344 28.136719 C 56.4375 28.628906 58.871094 28.59375 59.820312 28.085938 C 61.046875 27.4375 61.691406 26.472656 61.902344 25.019531 C 62.253906 22.601562 60.554688 20.691406 57.910156 20.550781 C 57.105469 20.515625 56.421875 20.585938 55.984375 20.742188 Z M 59.207031 21.691406 C 59.976562 22.445312 60.257812 23.300781 60.257812 24.792969 C 60.257812 26.015625 59.820312 27.105469 59.117188 27.648438 C 58.75 27.945312 58.398438 28.03125 57.664062 28.03125 C 56.789062 28.03125 56.648438 27.980469 56.054688 27.367188 C 54.914062 26.226562 54.632812 24.089844 55.441406 22.496094 C 55.964844 21.425781 56.578125 21.042969 57.699219 21.023438 C 58.453125 21.023438 58.628906 21.09375 59.207031 21.691406 Z M 59.207031 21.691406 "/>
<path style=" stroke:none;fill-rule:nonzero;fill:rgb(0%,0%,0%);fill-opacity:1;" d="M 11.824219 20.847656 C 11.875 20.9375 11.964844 21.023438 12.015625 21.023438 C 12.050781 21.023438 12.085938 20.9375 12.085938 20.847656 C 12.085938 20.742188 12 20.675781 11.894531 20.675781 C 11.804688 20.675781 11.769531 20.742188 11.824219 20.847656 Z M 11.824219 20.847656 "/>
<path style=" stroke:none;fill-rule:nonzero;fill:rgb(0%,0%,0%);fill-opacity:1;" d="M 12.261719 20.761719 C 12.261719 20.8125 12.453125 20.9375 12.699219 21.023438 C 13.242188 21.234375 13.261719 21.515625 12.785156 24.984375 C 12.472656 27.4375 12.417969 27.613281 11.964844 27.980469 L 11.472656 28.382812 L 12.875 28.382812 C 14.242188 28.363281 14.257812 28.363281 13.769531 28.101562 L 13.261719 27.820312 L 13.382812 26.472656 C 13.433594 25.738281 13.539062 24.492188 13.609375 23.6875 C 13.664062 22.882812 13.769531 22.304688 13.839844 22.375 C 13.90625 22.445312 14.625 23.792969 15.414062 25.371094 C 16.203125 26.945312 16.921875 28.207031 17.007812 28.171875 C 17.097656 28.136719 17.832031 26.789062 18.636719 25.160156 L 20.089844 22.214844 L 20.195312 23.230469 C 20.265625 23.808594 20.355469 25.035156 20.425781 26 C 20.546875 27.683594 20.53125 27.734375 20.125 28.050781 C 19.707031 28.363281 19.722656 28.382812 21.335938 28.382812 C 22.210938 28.382812 22.945312 28.347656 22.945312 28.296875 C 22.945312 28.242188 22.753906 28.121094 22.527344 28.03125 C 22.160156 27.890625 22.089844 27.734375 21.984375 26.683594 C 21.929688 26.035156 21.808594 24.859375 21.71875 24.109375 C 21.441406 21.832031 21.476562 21.460938 22.035156 21.042969 L 22.507812 20.691406 L 21.371094 20.675781 L 20.230469 20.675781 L 18.847656 23.40625 L 17.480469 26.15625 L 16.0625 23.40625 L 14.625 20.675781 L 13.453125 20.675781 C 12.785156 20.675781 12.261719 20.707031 12.261719 20.761719 Z M 12.261719 20.761719 "/>
<path style=" stroke:none;fill-rule:nonzero;fill:rgb(0%,0%,0%);fill-opacity:1;" d="M 28.394531 21.148438 C 28.273438 21.425781 27.730469 22.707031 27.203125 24.003906 C 25.890625 27.191406 25.644531 27.648438 24.996094 28.03125 L 24.433594 28.382812 L 25.925781 28.382812 C 27.132812 28.363281 27.34375 28.332031 27.0625 28.171875 C 26.484375 27.839844 26.46875 27.664062 26.851562 26.5625 L 27.238281 25.492188 L 28.585938 25.4375 L 29.9375 25.386719 L 30.234375 26.050781 C 30.8125 27.402344 30.828125 27.664062 30.425781 28.03125 L 30.058594 28.382812 L 31.808594 28.382812 C 33.367188 28.363281 33.507812 28.347656 33.195312 28.121094 C 33 27.980469 32.757812 27.785156 32.652344 27.699219 C 32.527344 27.613281 31.792969 25.984375 31.003906 24.109375 C 29.621094 20.867188 29.515625 20.675781 29.078125 20.675781 C 28.726562 20.675781 28.550781 20.796875 28.394531 21.148438 Z M 29.21875 23.546875 C 29.496094 24.265625 29.726562 24.878906 29.691406 24.914062 C 29.65625 24.949219 29.164062 24.929688 28.585938 24.914062 L 27.535156 24.84375 L 27.992188 23.546875 C 28.253906 22.828125 28.515625 22.25 28.570312 22.25 C 28.640625 22.25 28.917969 22.828125 29.21875 23.546875 Z M 29.21875 23.546875 "/>
<path style=" stroke:none;fill-rule:nonzero;fill:rgb(0%,0%,0%);fill-opacity:1;" d="M 34.035156 21.078125 C 34.386719 21.355469 34.683594 21.953125 35.121094 23.300781 C 36.207031 26.5625 36.996094 28.398438 37.273438 28.347656 C 37.433594 28.3125 37.886719 27.347656 38.429688 25.894531 C 38.921875 24.5625 39.359375 23.476562 39.414062 23.476562 C 39.464844 23.476562 39.957031 24.546875 40.53125 25.84375 C 41.550781 28.207031 41.953125 28.839844 42.128906 28.363281 C 43.089844 25.703125 44.542969 21.933594 44.773438 21.550781 C 44.949219 21.269531 45.246094 20.988281 45.4375 20.917969 C 45.734375 20.8125 45.683594 20.777344 45.15625 20.726562 C 44.789062 20.691406 44.160156 20.675781 43.757812 20.707031 C 43.003906 20.777344 43.003906 20.777344 43.492188 20.988281 C 43.757812 21.09375 43.964844 21.253906 43.964844 21.339844 C 43.964844 21.566406 42.617188 25.527344 42.425781 25.878906 C 42.214844 26.226562 42.355469 26.492188 40.9375 23.125 C 40.5 22.074219 40.058594 21.269531 39.902344 21.234375 C 39.65625 21.183594 38.957031 22.742188 37.992188 25.4375 C 37.871094 25.808594 37.714844 26.105469 37.644531 26.105469 C 37.539062 26.105469 36.085938 21.777344 36.085938 21.445312 C 36.085938 21.339844 36.257812 21.113281 36.488281 20.972656 C 36.855469 20.707031 36.765625 20.691406 35.207031 20.691406 L 33.542969 20.675781 Z M 34.035156 21.078125 "/>
<path style=" stroke:none;fill-rule:nonzero;fill:rgb(0%,0%,0%);fill-opacity:1;" d="M 48.152344 21.007812 C 48.539062 21.304688 48.574219 21.480469 48.644531 23.054688 C 48.695312 24.019531 48.644531 25.808594 48.554688 27.050781 L 48.398438 29.3125 L 47.75 29.90625 C 47.382812 30.238281 47.136719 30.554688 47.171875 30.609375 C 47.328125 30.746094 48.589844 30.011719 49.082031 29.488281 C 49.972656 28.539062 50.097656 27.980469 50.097656 24.546875 C 50.097656 21.515625 50.113281 21.375 50.484375 21.023438 L 50.867188 20.675781 L 49.292969 20.675781 C 47.75 20.675781 47.734375 20.691406 48.152344 21.007812 Z M 48.152344 21.007812 "/>
<path style=" stroke:none;fill-rule:nonzero;fill:rgb(0%,0%,0%);fill-opacity:1;" d="M 64.933594 20.988281 C 65.300781 21.269531 65.320312 21.445312 65.371094 24.039062 C 65.425781 26.507812 65.460938 26.824219 65.792969 27.277344 C 66.386719 28.085938 67.175781 28.433594 68.558594 28.503906 C 70.207031 28.609375 71.1875 28.136719 71.78125 26.980469 C 72.117188 26.316406 72.167969 25.929688 72.167969 24.246094 C 72.167969 21.726562 72.273438 21.21875 72.851562 20.972656 C 73.289062 20.777344 73.289062 20.777344 72.554688 20.707031 C 72.152344 20.675781 71.519531 20.675781 71.152344 20.707031 L 70.503906 20.777344 L 70.976562 20.972656 C 71.589844 21.253906 71.710938 21.882812 71.609375 24.421875 C 71.519531 26.628906 71.34375 27.121094 70.382812 27.613281 C 69.996094 27.804688 69.539062 27.875 68.875 27.820312 C 68.050781 27.753906 67.824219 27.648438 67.402344 27.175781 L 66.914062 26.628906 L 66.914062 23.933594 C 66.914062 21.339844 66.929688 21.234375 67.316406 20.972656 C 67.683594 20.707031 67.613281 20.691406 66.125 20.691406 C 64.601562 20.675781 64.566406 20.691406 64.933594 20.988281 Z M 64.933594 20.988281 "/>
<path style=" stroke:none;fill-rule:nonzero;fill:rgb(0%,0%,0%);fill-opacity:1;" d="M 75.722656 21.042969 L 76.195312 21.410156 L 76.195312 27.523438 L 75.722656 27.980469 L 75.234375 28.417969 L 78.125 28.347656 C 81.453125 28.261719 82.152344 28.066406 83.097656 26.945312 C 84.410156 25.421875 84.34375 23.195312 82.90625 21.882812 C 81.835938 20.882812 81.433594 20.777344 78.210938 20.707031 L 75.234375 20.65625 Z M 80.996094 21.707031 C 81.800781 22.214844 82.171875 22.917969 82.273438 24.179688 C 82.433594 25.859375 81.835938 27.105469 80.628906 27.613281 C 79.804688 27.960938 77.84375 27.945312 77.703125 27.578125 C 77.652344 27.417969 77.597656 25.914062 77.597656 24.230469 L 77.597656 21.148438 L 78.980469 21.234375 C 79.996094 21.285156 80.507812 21.410156 80.996094 21.707031 Z M 80.996094 21.707031 "/>
<path style=" stroke:none;fill-rule:nonzero;fill:rgb(0%,0%,0%);fill-opacity:1;" d="M 145.035156 27 L 143.757812 28.417969 L 146.527344 31.1875 L 149.292969 28.171875 L 147.996094 26.875 C 147.296875 26.15625 146.628906 25.578125 146.527344 25.578125 C 146.421875 25.578125 145.753906 26.210938 145.035156 27 Z M 145.035156 27 "/>
<path style=" stroke:none;fill-rule:nonzero;fill:rgb(0%,0%,0%);fill-opacity:1;" d="M 139.5 29.855469 C 139.34375 30.273438 139.570312 30.695312 139.90625 30.625 C 140.113281 30.589844 140.21875 30.414062 140.21875 30.136719 C 140.21875 29.625 139.660156 29.417969 139.5 29.855469 Z M 139.5 29.855469 "/>
</g>
</svg>
