<?xml version="1.0" standalone="no"?>
<!DOCTYPE svg PUBLIC "-//W3C//DTD SVG 20010904//EN"
 "http://www.w3.org/TR/2001/REC-SVG-20010904/DTD/svg10.dtd">
<svg version="1.0" xmlns="http://www.w3.org/2000/svg"
 width="1090.000000pt" height="297.000000pt" viewBox="0 0 1090.000000 297.000000"
 preserveAspectRatio="xMidYMid meet">

<g transform="translate(0.000000,297.000000) scale(0.100000,-0.100000)"
fill="#000000" stroke="none">
<path d="M5400 1566 c0 -651 3 -986 10 -986 14 0 14 1956 0 1965 -7 4 -10
-325 -10 -979z"/>
<path d="M6465 2253 c-134 -189 -170 -311 -123 -415 34 -72 63 -105 187 -205
154 -125 200 -172 227 -228 28 -59 30 -98 8 -174 -40 -143 -199 -258 -363
-262 -44 -2 -45 -2 -11 -8 53 -10 147 8 218 39 196 89 314 337 268 560 -26
126 -65 188 -210 335 -152 154 -181 203 -174 294 2 31 13 76 25 99 32 66 9 50
-52 -35z"/>
<path d="M7938 2090 c-44 -24 -62 -49 -116 -156 l-41 -81 89 5 c49 2 138 -1
197 -7 122 -14 346 -66 323 -75 -49 -20 -378 -120 -445 -136 -78 -18 -261 -50
-289 -50 -9 0 -15 21 -20 70 -30 306 -210 501 -392 425 -117 -49 -253 -302
-254 -472 0 -28 4 -63 10 -77 17 -46 79 -103 142 -132 56 -25 77 -29 186 -32
67 -2 122 -6 122 -9 0 -17 -139 -157 -213 -214 -263 -204 -587 -322 -840 -306
-265 16 -380 172 -283 383 41 89 -1 43 -52 -58 -55 -107 -70 -185 -54 -279 28
-162 131 -264 301 -300 78 -16 258 -6 356 20 242 64 482 209 682 412 114 116
162 180 215 286 l40 81 97 17 c137 24 343 76 581 147 113 33 267 77 342 97
l137 36 56 90 c31 50 65 99 76 111 29 31 24 44 -20 44 -141 0 -371 49 -606
130 -151 52 -267 63 -327 30z m-587 -258 c76 -49 128 -126 145 -218 l7 -37
-74 7 c-189 17 -309 79 -309 160 0 99 133 150 231 88z"/>
<path d="M9955 1982 c-53 -25 -129 -110 -190 -213 -63 -107 -120 -168 -194
-208 -81 -43 -91 -41 -91 15 0 69 -29 183 -63 247 -60 114 -162 173 -258 147
-87 -24 -208 -184 -259 -343 -29 -88 -26 -201 6 -244 54 -72 151 -107 301
-108 55 0 99 -3 97 -7 -10 -16 -133 -79 -220 -112 -195 -75 -461 -132 -854
-181 -499 -63 -721 -118 -979 -241 -214 -102 -391 -244 -491 -394 -43 -63 -37
-65 25 -9 50 45 198 134 297 177 51 23 149 57 217 77 207 59 341 81 946 150
412 48 618 96 800 187 150 76 302 210 367 324 28 51 38 59 105 89 48 22 94 54
132 90 l59 56 18 -36 c56 -118 292 -202 416 -147 63 28 119 87 159 168 32 64
34 75 33 164 0 111 -21 175 -82 255 -77 101 -201 142 -297 97z m148 -266 c30
-14 74 -45 96 -67 34 -34 41 -48 41 -80 0 -46 -18 -59 -83 -59 -126 0 -317
106 -317 177 0 12 12 31 28 43 39 32 157 25 235 -14z m-912 2 c22 -6 57 -26
78 -45 41 -34 107 -151 94 -164 -13 -11 -224 9 -273 26 -54 19 -90 51 -90 80
0 35 42 89 80 102 45 15 64 16 111 1z"/>
<path d="M3196 1786 c-57 -21 -87 -46 -120 -100 -25 -40 -30 -58 -30 -114 0
-99 38 -162 124 -208 52 -28 191 -26 245 3 70 37 107 92 119 175 20 138 -77
247 -228 255 -46 2 -85 -2 -110 -11z m184 -54 c44 -43 60 -92 60 -177 0 -70
-25 -132 -65 -163 -21 -17 -41 -22 -83 -22 -50 0 -58 3 -92 38 -65 65 -81 187
-35 278 30 61 65 83 129 84 43 0 53 -4 86 -38z"/>
<path d="M675 1780 c3 -5 8 -10 11 -10 2 0 4 5 4 10 0 6 -5 10 -11 10 -5 0 -7
-4 -4 -10z"/>
<path d="M700 1785 c0 -3 11 -10 25 -15 31 -12 32 -28 5 -226 -18 -140 -21
-150 -47 -171 l-28 -23 80 0 c78 1 79 1 51 16 l-29 16 7 77 c3 42 9 113 13
159 3 46 9 79 13 75 4 -4 45 -81 90 -171 45 -90 86 -162 91 -160 5 2 47 79 93
172 l83 168 6 -58 c4 -33 9 -103 13 -158 7 -96 6 -99 -17 -117 -24 -18 -23
-19 69 -19 50 0 92 2 92 5 0 3 -11 10 -24 15 -21 8 -25 17 -31 77 -3 37 -10
104 -15 147 -16 130 -14 151 18 175 l27 20 -65 1 -65 0 -79 -156 -78 -157 -81
157 -82 156 -67 0 c-38 0 -68 -2 -68 -5z"/>
<path d="M1621 1763 c-7 -16 -38 -89 -68 -163 -75 -182 -89 -208 -126 -230
l-32 -20 85 0 c69 1 81 3 65 12 -33 19 -34 29 -12 92 l22 61 77 3 77 3 17 -38
c33 -77 34 -92 11 -113 l-21 -20 100 0 c89 1 97 2 79 15 -11 8 -25 19 -31 24
-7 5 -49 98 -94 205 -79 185 -85 196 -110 196 -20 0 -30 -7 -39 -27z m47 -137
c16 -41 29 -76 27 -78 -2 -2 -30 -1 -63 0 l-60 4 26 74 c15 41 30 74 33 74 4
0 20 -33 37 -74z"/>
<path d="M1943 1767 c20 -16 37 -50 62 -127 62 -186 107 -291 123 -288 9 2 35
57 66 140 28 76 53 138 56 138 3 0 31 -61 64 -135 58 -135 81 -171 91 -144 55
152 138 367 151 389 10 16 27 32 38 36 17 6 14 8 -16 11 -21 2 -57 3 -80 1
-43 -4 -43 -4 -15 -16 15 -6 27 -15 27 -20 0 -13 -77 -239 -88 -259 -12 -20
-4 -35 -85 157 -25 60 -50 106 -59 108 -14 3 -54 -86 -109 -240 -7 -21 -16
-38 -20 -38 -6 0 -89 247 -89 266 0 6 10 19 23 27 21 15 16 16 -73 16 l-95 1
28 -23z"/>
<path d="M2749 1771 c22 -17 24 -27 28 -117 3 -55 0 -157 -5 -228 l-9 -129
-37 -34 c-21 -19 -35 -37 -33 -40 9 -8 81 34 109 64 51 54 58 86 58 282 0 173
1 181 22 201 l22 20 -90 0 c-88 0 -89 -1 -65 -19z"/>
<path d="M3707 1772 c21 -16 22 -26 25 -174 3 -141 5 -159 24 -185 34 -46 79
-66 158 -70 94 -6 150 21 184 87 19 38 22 60 22 156 0 144 6 173 39 187 25 11
25 11 -17 15 -23 2 -59 2 -80 0 l-37 -4 27 -11 c35 -16 42 -52 36 -197 -5
-126 -15 -154 -70 -182 -22 -11 -48 -15 -86 -12 -47 4 -60 10 -84 37 l-28 31
0 154 c0 148 1 154 23 169 21 15 17 16 -68 16 -87 1 -89 0 -68 -17z"/>
<path d="M4323 1769 l27 -21 0 -174 0 -175 -27 -26 -28 -25 165 4 c190 5 230
16 284 80 75 87 71 214 -11 289 -61 57 -84 63 -268 67 l-170 3 28 -22z m301
-38 c46 -29 67 -69 73 -141 9 -96 -25 -167 -94 -196 -47 -20 -159 -19 -167 2
-3 9 -6 95 -6 191 l0 176 79 -5 c58 -3 87 -10 115 -27z"/>
<path d="M8280 1429 l-73 -81 79 -79 79 -79 79 86 79 86 -74 74 c-40 41 -78
74 -84 74 -6 0 -44 -36 -85 -81z"/>
<path d="M7964 1266 c-9 -24 4 -48 23 -44 12 2 18 12 18 28 0 29 -32 41 -41
16z"/>
</g>
</svg>
