<?xml version="1.0" encoding="UTF-8"?>
<svg xmlns="http://www.w3.org/2000/svg" xmlns:xlink="http://www.w3.org/1999/xlink" width="190px" height="52px" viewBox="0 0 47 13" version="1.1">
<g id="surface1">
<path style=" stroke:none;fill-rule:nonzero;fill:rgb(0%,0%,0%);fill-opacity:1;" d="M 23.277344 6.152344 C 23.277344 8.988281 23.289062 10.449219 23.320312 10.449219 C 23.378906 10.449219 23.378906 1.925781 23.320312 1.886719 C 23.289062 1.867188 23.277344 3.300781 23.277344 6.152344 Z M 23.277344 6.152344 "/>
<path style=" stroke:none;fill-rule:nonzero;fill:rgb(0%,0%,0%);fill-opacity:1;" d="M 27.867188 3.160156 C 27.289062 3.980469 27.132812 4.511719 27.335938 4.964844 C 27.480469 5.28125 27.605469 5.421875 28.144531 5.859375 C 28.804688 6.402344 29.003906 6.609375 29.121094 6.851562 C 29.242188 7.109375 29.25 7.28125 29.15625 7.613281 C 28.984375 8.234375 28.296875 8.734375 27.589844 8.753906 C 27.402344 8.761719 27.398438 8.761719 27.542969 8.789062 C 27.773438 8.832031 28.175781 8.753906 28.484375 8.617188 C 29.328125 8.230469 29.835938 7.148438 29.636719 6.175781 C 29.527344 5.628906 29.359375 5.359375 28.734375 4.71875 C 28.078125 4.046875 27.953125 3.832031 27.984375 3.4375 C 27.992188 3.300781 28.039062 3.105469 28.089844 3.003906 C 28.226562 2.71875 28.128906 2.789062 27.867188 3.160156 Z M 27.867188 3.160156 "/>
<path style=" stroke:none;fill-rule:nonzero;fill:rgb(0%,0%,0%);fill-opacity:1;" d="M 34.214844 3.867188 C 34.027344 3.972656 33.949219 4.082031 33.714844 4.546875 L 33.539062 4.902344 L 33.921875 4.878906 C 34.132812 4.871094 34.515625 4.882812 34.769531 4.910156 C 35.296875 4.972656 36.261719 5.199219 36.164062 5.234375 C 35.953125 5.324219 34.535156 5.757812 34.246094 5.828125 C 33.910156 5.90625 33.121094 6.046875 33 6.046875 C 32.960938 6.046875 32.933594 5.953125 32.914062 5.742188 C 32.785156 4.410156 32.007812 3.558594 31.222656 3.890625 C 30.71875 4.101562 30.132812 5.207031 30.128906 5.945312 C 30.128906 6.070312 30.148438 6.222656 30.171875 6.28125 C 30.246094 6.484375 30.511719 6.730469 30.785156 6.859375 C 31.027344 6.964844 31.117188 6.984375 31.585938 6.996094 C 31.875 7.003906 32.113281 7.023438 32.113281 7.035156 C 32.113281 7.109375 31.511719 7.71875 31.195312 7.96875 C 30.058594 8.855469 28.664062 9.371094 27.574219 9.300781 C 26.429688 9.230469 25.9375 8.550781 26.355469 7.632812 C 26.53125 7.246094 26.347656 7.445312 26.128906 7.886719 C 25.890625 8.351562 25.828125 8.691406 25.894531 9.101562 C 26.015625 9.808594 26.460938 10.25 27.195312 10.40625 C 27.53125 10.476562 28.304688 10.433594 28.726562 10.320312 C 29.773438 10.042969 30.804688 9.410156 31.667969 8.527344 C 32.160156 8.019531 32.367188 7.742188 32.59375 7.28125 L 32.765625 6.925781 L 33.183594 6.851562 C 33.777344 6.75 34.664062 6.519531 35.6875 6.210938 C 36.175781 6.070312 36.839844 5.878906 37.164062 5.789062 L 37.753906 5.632812 L 37.996094 5.242188 C 38.128906 5.023438 38.277344 4.808594 38.324219 4.757812 C 38.449219 4.621094 38.425781 4.566406 38.238281 4.566406 C 37.628906 4.566406 36.636719 4.351562 35.625 4 C 34.972656 3.773438 34.472656 3.722656 34.214844 3.867188 Z M 31.6875 4.992188 C 32.011719 5.207031 32.238281 5.542969 32.3125 5.941406 L 32.339844 6.105469 L 32.019531 6.074219 C 31.207031 6 30.691406 5.730469 30.691406 5.375 C 30.691406 4.945312 31.261719 4.722656 31.6875 4.992188 Z M 31.6875 4.992188 "/>
<path style=" stroke:none;fill-rule:nonzero;fill:rgb(0%,0%,0%);fill-opacity:1;" d="M 42.910156 4.339844 C 42.679688 4.449219 42.351562 4.820312 42.089844 5.265625 C 41.820312 5.734375 41.574219 6 41.253906 6.171875 C 40.90625 6.359375 40.863281 6.351562 40.863281 6.109375 C 40.863281 5.808594 40.738281 5.3125 40.589844 5.03125 C 40.332031 4.535156 39.894531 4.277344 39.476562 4.390625 C 39.105469 4.496094 38.582031 5.191406 38.363281 5.886719 C 38.238281 6.269531 38.25 6.761719 38.386719 6.949219 C 38.621094 7.261719 39.039062 7.414062 39.683594 7.417969 C 39.921875 7.417969 40.113281 7.433594 40.101562 7.449219 C 40.058594 7.519531 39.53125 7.792969 39.15625 7.9375 C 38.3125 8.265625 37.167969 8.511719 35.472656 8.726562 C 33.324219 9 32.367188 9.242188 31.253906 9.777344 C 30.332031 10.21875 29.570312 10.839844 29.136719 11.492188 C 28.953125 11.769531 28.976562 11.777344 29.246094 11.53125 C 29.460938 11.335938 30.097656 10.949219 30.527344 10.761719 C 30.746094 10.660156 31.167969 10.511719 31.460938 10.425781 C 32.355469 10.167969 32.929688 10.074219 35.539062 9.773438 C 37.316406 9.5625 38.203125 9.355469 38.988281 8.957031 C 39.632812 8.625 40.289062 8.042969 40.570312 7.546875 C 40.691406 7.324219 40.734375 7.289062 41.019531 7.15625 C 41.230469 7.0625 41.425781 6.921875 41.589844 6.765625 L 41.84375 6.519531 L 41.921875 6.679688 C 42.164062 7.191406 43.179688 7.558594 43.714844 7.320312 C 43.988281 7.199219 44.230469 6.941406 44.402344 6.585938 C 44.539062 6.308594 44.546875 6.261719 44.542969 5.871094 C 44.542969 5.386719 44.453125 5.109375 44.1875 4.761719 C 43.859375 4.320312 43.324219 4.144531 42.910156 4.339844 Z M 43.546875 5.496094 C 43.675781 5.558594 43.867188 5.695312 43.960938 5.789062 C 44.109375 5.9375 44.136719 6 44.136719 6.136719 C 44.136719 6.339844 44.0625 6.394531 43.78125 6.394531 C 43.238281 6.394531 42.414062 5.933594 42.414062 5.625 C 42.414062 5.570312 42.464844 5.488281 42.535156 5.4375 C 42.703125 5.296875 43.210938 5.328125 43.546875 5.496094 Z M 39.617188 5.488281 C 39.710938 5.515625 39.863281 5.601562 39.953125 5.683594 C 40.128906 5.832031 40.414062 6.34375 40.359375 6.398438 C 40.300781 6.449219 39.390625 6.359375 39.179688 6.285156 C 38.949219 6.203125 38.792969 6.0625 38.792969 5.9375 C 38.792969 5.785156 38.972656 5.550781 39.136719 5.492188 C 39.332031 5.429688 39.414062 5.421875 39.617188 5.488281 Z M 39.617188 5.488281 "/>
<path style=" stroke:none;fill-rule:nonzero;fill:rgb(0%,0%,0%);fill-opacity:1;" d="M 13.777344 5.191406 C 13.53125 5.285156 13.402344 5.394531 13.257812 5.628906 C 13.152344 5.800781 13.128906 5.882812 13.128906 6.125 C 13.128906 6.554688 13.292969 6.832031 13.664062 7.03125 C 13.886719 7.152344 14.488281 7.144531 14.71875 7.019531 C 15.023438 6.859375 15.179688 6.617188 15.234375 6.257812 C 15.320312 5.65625 14.902344 5.179688 14.25 5.144531 C 14.050781 5.136719 13.882812 5.152344 13.777344 5.191406 Z M 14.570312 5.429688 C 14.757812 5.617188 14.828125 5.828125 14.828125 6.199219 C 14.828125 6.503906 14.71875 6.773438 14.546875 6.910156 C 14.457031 6.984375 14.371094 7.003906 14.191406 7.003906 C 13.972656 7.003906 13.941406 6.992188 13.792969 6.839844 C 13.511719 6.554688 13.445312 6.023438 13.644531 5.628906 C 13.769531 5.363281 13.921875 5.265625 14.199219 5.261719 C 14.382812 5.261719 14.425781 5.28125 14.570312 5.429688 Z M 14.570312 5.429688 "/>
<path style=" stroke:none;fill-rule:nonzero;fill:rgb(0%,0%,0%);fill-opacity:1;" d="M 2.910156 5.21875 C 2.921875 5.242188 2.945312 5.261719 2.957031 5.261719 C 2.964844 5.261719 2.972656 5.242188 2.972656 5.21875 C 2.972656 5.191406 2.953125 5.175781 2.925781 5.175781 C 2.90625 5.175781 2.894531 5.191406 2.910156 5.21875 Z M 2.910156 5.21875 "/>
<path style=" stroke:none;fill-rule:nonzero;fill:rgb(0%,0%,0%);fill-opacity:1;" d="M 3.015625 5.199219 C 3.015625 5.210938 3.0625 5.242188 3.125 5.261719 C 3.257812 5.316406 3.261719 5.386719 3.144531 6.246094 C 3.070312 6.859375 3.054688 6.902344 2.945312 6.992188 L 2.824219 7.09375 L 3.167969 7.09375 C 3.503906 7.085938 3.507812 7.085938 3.386719 7.023438 L 3.261719 6.953125 L 3.292969 6.617188 C 3.304688 6.433594 3.332031 6.125 3.347656 5.925781 C 3.363281 5.726562 3.386719 5.582031 3.40625 5.597656 C 3.421875 5.617188 3.597656 5.949219 3.792969 6.34375 C 3.988281 6.734375 4.164062 7.050781 4.183594 7.039062 C 4.207031 7.03125 4.386719 6.695312 4.585938 6.292969 L 4.945312 5.558594 L 4.96875 5.8125 C 4.988281 5.953125 5.007812 6.261719 5.027344 6.5 C 5.054688 6.917969 5.050781 6.929688 4.953125 7.011719 C 4.847656 7.085938 4.851562 7.09375 5.25 7.09375 C 5.464844 7.09375 5.644531 7.082031 5.644531 7.070312 C 5.644531 7.058594 5.597656 7.027344 5.542969 7.003906 C 5.453125 6.96875 5.4375 6.929688 5.410156 6.671875 C 5.394531 6.507812 5.367188 6.214844 5.34375 6.03125 C 5.277344 5.464844 5.285156 5.371094 5.421875 5.265625 L 5.539062 5.179688 L 5.257812 5.175781 L 4.976562 5.175781 L 4.636719 5.855469 L 4.300781 6.539062 L 3.953125 5.855469 L 3.597656 5.175781 L 3.308594 5.175781 C 3.144531 5.175781 3.015625 5.183594 3.015625 5.199219 Z M 3.015625 5.199219 "/>
<path style=" stroke:none;fill-rule:nonzero;fill:rgb(0%,0%,0%);fill-opacity:1;" d="M 6.988281 5.292969 C 6.957031 5.363281 6.824219 5.679688 6.695312 6.003906 C 6.371094 6.796875 6.308594 6.910156 6.152344 7.003906 L 6.011719 7.09375 L 6.378906 7.09375 C 6.675781 7.085938 6.730469 7.078125 6.660156 7.039062 C 6.515625 6.957031 6.511719 6.914062 6.609375 6.640625 L 6.703125 6.375 L 7.035156 6.359375 L 7.367188 6.347656 L 7.441406 6.511719 C 7.582031 6.847656 7.585938 6.914062 7.488281 7.003906 L 7.398438 7.09375 L 7.828125 7.09375 C 8.210938 7.085938 8.246094 7.082031 8.167969 7.027344 C 8.121094 6.992188 8.0625 6.945312 8.035156 6.921875 C 8.003906 6.902344 7.824219 6.496094 7.628906 6.03125 C 7.289062 5.222656 7.261719 5.175781 7.15625 5.175781 C 7.070312 5.175781 7.027344 5.207031 6.988281 5.292969 Z M 7.191406 5.890625 C 7.257812 6.070312 7.316406 6.222656 7.304688 6.230469 C 7.296875 6.238281 7.175781 6.234375 7.035156 6.230469 L 6.777344 6.210938 L 6.886719 5.890625 C 6.953125 5.710938 7.015625 5.566406 7.03125 5.566406 C 7.046875 5.566406 7.117188 5.710938 7.191406 5.890625 Z M 7.191406 5.890625 "/>
<path style=" stroke:none;fill-rule:nonzero;fill:rgb(0%,0%,0%);fill-opacity:1;" d="M 8.375 5.277344 C 8.460938 5.34375 8.535156 5.492188 8.640625 5.828125 C 8.910156 6.640625 9.105469 7.097656 9.171875 7.082031 C 9.210938 7.074219 9.324219 6.835938 9.457031 6.472656 C 9.578125 6.140625 9.683594 5.871094 9.699219 5.871094 C 9.710938 5.871094 9.832031 6.136719 9.972656 6.460938 C 10.222656 7.050781 10.324219 7.207031 10.367188 7.085938 C 10.601562 6.425781 10.960938 5.488281 11.015625 5.394531 C 11.0625 5.324219 11.132812 5.253906 11.179688 5.234375 C 11.253906 5.210938 11.242188 5.203125 11.113281 5.1875 C 11.019531 5.179688 10.867188 5.175781 10.769531 5.183594 C 10.582031 5.203125 10.582031 5.203125 10.703125 5.253906 C 10.769531 5.28125 10.820312 5.320312 10.820312 5.339844 C 10.820312 5.398438 10.488281 6.382812 10.441406 6.46875 C 10.386719 6.554688 10.421875 6.621094 10.074219 5.785156 C 9.964844 5.523438 9.855469 5.324219 9.820312 5.316406 C 9.757812 5.300781 9.585938 5.691406 9.347656 6.359375 C 9.320312 6.453125 9.28125 6.527344 9.261719 6.527344 C 9.238281 6.527344 8.878906 5.449219 8.878906 5.367188 C 8.878906 5.339844 8.921875 5.285156 8.980469 5.25 C 9.070312 5.183594 9.046875 5.179688 8.664062 5.179688 L 8.253906 5.175781 Z M 8.375 5.277344 "/>
<path style=" stroke:none;fill-rule:nonzero;fill:rgb(0%,0%,0%);fill-opacity:1;" d="M 11.847656 5.257812 C 11.945312 5.332031 11.953125 5.375 11.96875 5.765625 C 11.984375 6.007812 11.96875 6.453125 11.949219 6.761719 L 11.910156 7.324219 L 11.75 7.472656 C 11.660156 7.554688 11.597656 7.632812 11.609375 7.644531 C 11.644531 7.679688 11.957031 7.496094 12.078125 7.367188 C 12.296875 7.132812 12.328125 6.992188 12.328125 6.136719 C 12.328125 5.386719 12.332031 5.351562 12.421875 5.261719 L 12.515625 5.175781 L 12.128906 5.175781 C 11.75 5.175781 11.746094 5.179688 11.847656 5.257812 Z M 11.847656 5.257812 "/>
<path style=" stroke:none;fill-rule:nonzero;fill:rgb(0%,0%,0%);fill-opacity:1;" d="M 15.976562 5.253906 C 16.070312 5.324219 16.074219 5.367188 16.085938 6.011719 C 16.097656 6.625 16.109375 6.703125 16.191406 6.816406 C 16.335938 7.019531 16.53125 7.105469 16.871094 7.121094 C 17.277344 7.148438 17.515625 7.03125 17.664062 6.742188 C 17.746094 6.578125 17.757812 6.484375 17.757812 6.0625 C 17.757812 5.4375 17.785156 5.3125 17.925781 5.25 C 18.035156 5.203125 18.035156 5.203125 17.855469 5.183594 C 17.753906 5.175781 17.597656 5.175781 17.507812 5.183594 L 17.347656 5.203125 L 17.464844 5.25 C 17.617188 5.320312 17.644531 5.476562 17.621094 6.109375 C 17.597656 6.65625 17.554688 6.777344 17.320312 6.902344 C 17.222656 6.949219 17.113281 6.964844 16.949219 6.953125 C 16.746094 6.9375 16.691406 6.910156 16.585938 6.792969 L 16.464844 6.65625 L 16.464844 5.984375 C 16.464844 5.339844 16.46875 5.316406 16.566406 5.25 C 16.65625 5.183594 16.636719 5.179688 16.273438 5.179688 C 15.898438 5.175781 15.886719 5.179688 15.976562 5.253906 Z M 15.976562 5.253906 "/>
<path style=" stroke:none;fill-rule:nonzero;fill:rgb(0%,0%,0%);fill-opacity:1;" d="M 18.632812 5.265625 L 18.75 5.359375 L 18.75 6.878906 L 18.632812 6.992188 L 18.511719 7.101562 L 19.222656 7.082031 C 20.042969 7.0625 20.214844 7.015625 20.449219 6.734375 C 20.769531 6.355469 20.753906 5.800781 20.402344 5.476562 C 20.136719 5.226562 20.039062 5.203125 19.246094 5.183594 L 18.511719 5.171875 Z M 19.929688 5.433594 C 20.128906 5.558594 20.21875 5.734375 20.246094 6.046875 C 20.285156 6.464844 20.136719 6.773438 19.839844 6.902344 C 19.636719 6.988281 19.15625 6.984375 19.121094 6.890625 C 19.109375 6.851562 19.09375 6.480469 19.09375 6.058594 L 19.09375 5.292969 L 19.433594 5.316406 C 19.683594 5.328125 19.8125 5.359375 19.929688 5.433594 Z M 19.929688 5.433594 "/>
<path style=" stroke:none;fill-rule:nonzero;fill:rgb(0%,0%,0%);fill-opacity:1;" d="M 35.6875 6.75 L 35.375 7.101562 L 36.054688 7.789062 L 36.738281 7.039062 L 36.417969 6.71875 C 36.246094 6.539062 36.082031 6.394531 36.054688 6.394531 C 36.03125 6.394531 35.867188 6.550781 35.6875 6.75 Z M 35.6875 6.75 "/>
<path style=" stroke:none;fill-rule:nonzero;fill:rgb(0%,0%,0%);fill-opacity:1;" d="M 34.328125 7.457031 C 34.289062 7.5625 34.34375 7.667969 34.425781 7.648438 C 34.476562 7.640625 34.503906 7.597656 34.503906 7.527344 C 34.503906 7.402344 34.367188 7.351562 34.328125 7.457031 Z M 34.328125 7.457031 "/>
</g>
</svg>
